# xmcd
#
# Track frame offsets:
#	150
#	12597
#	27042
#	37810
#	50030
#	63240
#	75302
#	88990
#	103095
#	114825
#	129107
#	143242
#
# Disc length: 2036 seconds
#
# Revision: 0
# Processed by: cddbd v1.4PL0 Copyright (c) Steve Scherf et al.
# Submitted via: dBpowerAMP V4.0
#
DISCID=9007f20c
DTITLE=Sunnyland Slim - Sad And Lonesome
DYEAR=1900
DGENRE=blues
TTITLE0=Got A Thing Going On
TTITLE1=Smile On My Face
TTITLE2=My Past Life
TTITLE3=Depression Blues
TTITLE4=Got A Bad Break
TTITLE5=Blow Walter Blow
TTITLE6=Brown Skin Woman
TTITLE7=Sad And Lonesome
TTITLE8=Be My Baby
TTITLE9=Your Fine Brown Frame
TTITLE10=Messin' Around With The Blues
TTITLE11=It's You Baby
EXTD=
EXTT0=
EXTT1=
EXTT2=
EXTT3=
EXTT4=
EXTT5=
EXTT6=
EXTT7=
EXTT8=
EXTT9=
EXTT10=
EXTT11=
PLAYORDER=
